<svg width="218" height="9" viewBox="0 0 218 9" fill="none" xmlns="http://www.w3.org/2000/svg"><path fill-rule="evenodd" clip-rule="evenodd" d="M5.81 3.715C4.82 5.72.714 4.645 1 2.144c1.29-1.608 5.095-.831 4.81 1.57zm64.607 1.209c.592-1.404-.508-1.397-.314-2.398.486-2.303 4.089-1.825 4.6-.028.41 1.797-2.474 4.415-4.286 2.426zM15.504 2.856c.017 2.8-4.384 2.527-5.097.531-.115-2.5 4.486-2.327 5.097-.53zm5.306 1.068c.665-5.804 7.103.457 2.91 1.582-1.198.308-2.005-.887-2.91-1.582zM64.503 2.56c-.089 1.8-.782 3.004-1.88 3.211-5.393 1.133-1.85-8.189 1.88-3.211zm-14.205-.714c3.192-1.42 4.823 3.77 1.926 4.288-1.698.31-5.217-2.768-1.926-4.288zM29.917 4.969c-.22-3.399 4.279-3.526 4.593-1.128.211 1.799-3.18 3.22-4.593 1.128zm55.489-2.036c.226 4.199-5.38 3.233-5.097.531.189-1.901 3.886-2.324 5.097-.53zM40.12 5.407c-1.025-4.194 3.477-3.92 3.989-1.924.511 1.897-2.277 3.814-3.989 1.924zm53.081-3.321c.7-.104 2.4-.015 2.708 1.284.718 2.895-3.98 3.224-4.593 1.127-.408-1.297-.112-1.899 1.885-2.411zm10.404.537c3.089-1.719 5.118 2.97 2.123 3.787-1.698.41-5.014-2.27-2.123-3.787zm12.904.722c.728 4.496-3.983 2.724-3.995.824-.111-1.9 2.686-2.416 3.995-.824zm51.661.695c-.591 1.404.508 1.397.315 2.398-.487 2.303-4.089 1.825-4.6.028-.411-1.798 2.473-4.415 4.285-2.426zm49.607 1c-.665 5.804-7.103-.457-2.91-1.583 1.198-.307 2.006.888 2.91 1.583zm-43.692 1.364c.089-1.8.781-3.004 1.88-3.211 5.393-1.133 1.85 8.189-1.88 3.211zm14.204.714c-3.191 1.42-4.823-3.77-1.926-4.288 1.698-.31 5.217 2.768 1.926 4.288zm20.381-3.123c.221 3.399-4.278 3.526-4.593 1.128-.211-1.799 3.181-3.22 4.593-1.128zM153.181 6.03c-.225-4.198 5.381-3.232 5.097-.53-.188 1.901-3.886 2.323-5.097.53zm45.286-2.473c1.026 4.194-3.476 3.92-3.988 1.924-.512-1.897 2.277-3.814 3.988-1.924zm-53.08 3.321c-.7.104-2.4.014-2.708-1.284-.718-2.895 3.98-3.224 4.593-1.128.408 1.298.111 1.9-1.885 2.412zm-10.404-.538c-3.089 1.72-5.118-2.968-2.123-3.786 1.698-.41 5.014 2.27 2.123 3.787zm-12.904-.721c-.728-4.496 3.983-2.724 3.995-.824.111 1.9-2.686 2.416-3.995.824z" fill="#FBD83F"/></svg>