<svg width="24" height="24" viewBox="0 0 24 24" fill="none" xmlns="http://www.w3.org/2000/svg"><path d="M7.315 1.006C4.135 3.516.984 5.364.203 9.723c-.867 4.791 1.07 10.13 5.262 12.786 7.66 4.82 20.033-2.828 18.386-11.805-.925-5.08-5.06-7.13-10.003-6.004-3.902.895-7.92 3.724-6.562 8.284 1.3 4.359 10.725 6.668 11.014.722.116-2.223-1.879-3.724-3.902-2.886-.839.346-1.764.808-1.62 1.933.116.895 2.198.866 2.198.982-.232 1.818-6.071-.26-4.857-3.724 1.156-3.261 6.736-3.723 9.395-2.367 1.937.982 2.284 4.215 1.822 6.148-.636 2.743-3.354 4.85-5.811 5.86-7.4 3.146-13.703-1.848-12.43-9.698.49-3.089 2.688-5.254 5.29-6.87 1.011-.635 2.399-.808 2.89-2.02.839-2.136-3.469-.462-3.96-.058z" fill="#FBD83F"/></svg>