<svg width="218" height="9" viewBox="0 0 218 9" fill="none" xmlns="http://www.w3.org/2000/svg">
<path fill-rule="evenodd" clip-rule="evenodd" d="M5.80928 3.71482C4.8214 5.72083 0.714824 4.64566 0.999692 2.14389C2.28999 0.536053 6.09476 1.31305 5.80928 3.71482Z" fill="#FBD83F"/>
<path fill-rule="evenodd" clip-rule="evenodd" d="M70.4174 4.92393C71.0089 3.52032 69.9089 3.52698 70.1028 2.52579C70.5889 0.222802 74.1919 0.701011 74.7028 2.49795C75.1136 4.2955 72.2294 6.913 70.4174 4.92393Z" fill="#FBD83F"/>
<path fill-rule="evenodd" clip-rule="evenodd" d="M15.5043 2.85613C15.5212 5.65608 11.1195 5.3827 10.4074 3.38698C10.2923 0.887628 14.8934 1.05979 15.5043 2.85613Z" fill="#FBD83F"/>
<path fill-rule="evenodd" clip-rule="evenodd" d="M20.8105 3.92404C21.4754 -1.88009 27.9134 4.38108 23.7202 5.50647C22.522 5.81372 21.7148 4.61859 20.8105 3.92404Z" fill="#FBD83F"/>
<path fill-rule="evenodd" clip-rule="evenodd" d="M64.5034 2.55968C64.4143 4.36025 63.7215 5.56446 62.6228 5.77112C57.2295 6.90377 60.7732 -2.41784 64.5034 2.55968Z" fill="#FBD83F"/>
<path fill-rule="evenodd" clip-rule="evenodd" d="M50.2983 1.84559C53.4898 0.426252 55.1212 5.61648 52.2243 6.13401C50.5261 6.44429 47.0074 3.36553 50.2983 1.84559Z" fill="#FBD83F"/>
<path fill-rule="evenodd" clip-rule="evenodd" d="M29.9171 4.96897C29.6966 1.57024 34.1959 1.44302 34.5104 3.84116C34.7213 5.63992 31.3298 7.06046 29.9171 4.96897Z" fill="#FBD83F"/>
<path fill-rule="evenodd" clip-rule="evenodd" d="M85.4061 2.93319C85.6316 7.13191 80.0256 6.16581 80.3093 3.46404C80.4978 1.56287 84.1953 1.14049 85.4061 2.93319Z" fill="#FBD83F"/>
<path fill-rule="evenodd" clip-rule="evenodd" d="M40.1201 5.40725C39.0947 1.21338 43.5965 1.48615 44.1086 3.48308C44.62 5.38002 41.8316 7.29693 40.1201 5.40725Z" fill="#FBD83F"/>
<path fill-rule="evenodd" clip-rule="evenodd" d="M93.2013 2.08601C93.9007 1.98178 95.6013 2.07149 95.9092 3.36965C96.6267 6.26537 91.9286 6.5938 91.3159 4.49747C90.908 3.19991 91.2044 2.59811 93.2013 2.08601Z" fill="#FBD83F"/>
<path fill-rule="evenodd" clip-rule="evenodd" d="M103.605 2.62309C106.694 0.904366 108.723 5.59218 105.728 6.41032C104.03 6.82059 100.714 4.14061 103.605 2.62309Z" fill="#FBD83F"/>
<path fill-rule="evenodd" clip-rule="evenodd" d="M116.509 3.34501C117.237 7.84069 112.526 6.06916 112.514 4.16919C112.403 2.26983 115.2 1.7529 116.509 3.34501Z" fill="#FBD83F"/>
<path fill-rule="evenodd" clip-rule="evenodd" d="M168.17 4.04003C167.579 5.44364 168.678 5.43698 168.485 6.43817C167.998 8.74116 164.396 8.26295 163.885 6.46601C163.474 4.66846 166.358 2.05096 168.17 4.04003Z" fill="#FBD83F"/>
<path fill-rule="evenodd" clip-rule="evenodd" d="M217.777 5.03989C217.112 10.844 210.674 4.58285 214.867 3.45746C216.065 3.15021 216.873 4.34534 217.777 5.03989Z" fill="#FBD83F"/>
<path fill-rule="evenodd" clip-rule="evenodd" d="M174.085 6.40428C174.174 4.60371 174.866 3.3995 175.965 3.19284C181.358 2.06019 177.815 11.3818 174.085 6.40428Z" fill="#FBD83F"/>
<path fill-rule="evenodd" clip-rule="evenodd" d="M188.289 7.11834C185.098 8.53768 183.466 3.34745 186.363 2.82992C188.061 2.51963 191.58 5.5984 188.289 7.11834Z" fill="#FBD83F"/>
<path fill-rule="evenodd" clip-rule="evenodd" d="M208.67 3.99499C208.891 7.39372 204.392 7.52094 204.077 5.1228C203.866 3.32404 207.258 1.9035 208.67 3.99499Z" fill="#FBD83F"/>
<path fill-rule="evenodd" clip-rule="evenodd" d="M153.181 6.03073C152.956 1.83202 158.562 2.79812 158.278 5.49989C158.09 7.40106 154.392 7.82344 153.181 6.03073Z" fill="#FBD83F"/>
<path fill-rule="evenodd" clip-rule="evenodd" d="M198.467 3.55668C199.493 7.75055 194.991 7.47778 194.479 5.48085C193.967 3.58391 196.756 1.667 198.467 3.55668Z" fill="#FBD83F"/>
<path fill-rule="evenodd" clip-rule="evenodd" d="M145.387 6.87791C144.687 6.98215 142.987 6.89244 142.679 5.59427C141.961 2.69856 146.659 2.37013 147.272 4.46646C147.68 5.76402 147.383 6.36582 145.387 6.87791Z" fill="#FBD83F"/>
<path fill-rule="evenodd" clip-rule="evenodd" d="M134.983 6.34084C131.894 8.05956 129.865 3.37175 132.86 2.55361C134.558 2.14333 137.874 4.82332 134.983 6.34084Z" fill="#FBD83F"/>
<path fill-rule="evenodd" clip-rule="evenodd" d="M122.079 5.61892C121.351 1.12324 126.062 2.89477 126.074 4.79474C126.185 6.6941 123.388 7.21103 122.079 5.61892Z" fill="#FBD83F"/>
</svg>
